Coordinates
version=1
nRows=38
nColumns=12
inDegrees=yes

Units are S.I. units (second, meters, Newtons, ...)
Angles are in degrees

endheader
time	SC_y	SC_z	SC_x	AC_y	AC_z	AC_x	GH_y	GH_z	GH_yy	EL_x	PS_y
       0.0              -54.52          5.495          84.37          64.72         -10.84         0.9845          10.74          87.44         -84.96          89.75          108.7
   0.03424              -54.52          5.495          84.36          64.72         -10.83         0.9833          10.74          87.43         -84.96          89.75          108.7
   0.06848              -54.52          5.495          84.35          64.71         -10.83          0.982          10.75          87.42         -84.95          89.75          108.7
    0.1027              -54.51          5.495          84.34          64.71         -10.83         0.9806          10.75          87.41         -84.94          89.74          108.7
     0.137              -54.51          5.496          84.33           64.7         -10.83         0.9791          10.75          87.39         -84.93          89.74          108.7
    0.1712               -54.5          5.496          84.32          64.69         -10.83         0.9775          10.75          87.38         -84.92          89.74          108.7
    0.2055              -54.49          5.496          84.31          64.69         -10.83         0.9758          10.75          87.36         -84.91          89.74          108.6
    0.2397              -54.49          5.496           84.3          64.68         -10.83          0.974          10.76          87.35          -84.9          89.74          108.6
    0.2739              -54.48          5.496          84.29          64.67         -10.83          0.972          10.76          87.33         -84.89          89.74          108.6
    0.3082              -54.47          5.496          84.28          64.66         -10.83         0.9699          10.76          87.31         -84.88          89.74          108.6
    0.3424              -54.46          5.497          84.27          64.66         -10.83         0.9677          10.76          87.29         -84.86          89.74          108.6
    0.3767              -54.46          5.497          84.25          64.65         -10.83         0.9653          10.77          87.27         -84.85          89.74          108.5
    0.4109              -54.45          5.497          84.24          64.64         -10.83         0.9627          10.77          87.24         -84.83          89.73          108.5
    0.4451              -54.44          5.497          84.22          64.62         -10.82         0.9599          10.77          87.22         -84.82          89.73          108.5
    0.4794              -54.43          5.497          84.21          64.61         -10.82         0.9568          10.78          87.19          -84.8          89.73          108.5
    0.5136              -54.41          5.498          84.19           64.6         -10.82         0.9535          10.78          87.16         -84.78          89.73          108.4
    0.5479               -54.4          5.498          84.17          64.59         -10.82           0.95          10.79          87.13         -84.76          89.73          108.4
    0.5821              -54.39          5.498          84.14          64.57         -10.82         0.9461          10.79          87.09         -84.73          89.73          108.4
    0.6164              -54.37          5.499          84.12          64.55         -10.82         0.9418           10.8          87.05         -84.71          89.72          108.3
    0.6506              -54.36          5.499          84.09          64.53         -10.81         0.9371           10.8          87.01         -84.68          89.72          108.3
    0.6848              -54.34            5.5          84.06          64.51         -10.81          0.932          10.81          86.96         -84.65          89.72          108.2
    0.7191              -54.32            5.5          84.03          64.49         -10.81         0.9264          10.82          86.91         -84.62          89.71          108.2
    0.7533              -54.29          5.501          83.99          64.47          -10.8         0.9201          10.83          86.86         -84.58          89.71          108.1
    0.7876              -54.27          5.501          83.95          64.44          -10.8         0.9132          10.83          86.79         -84.54          89.71          108.1
    0.8218              -54.24          5.502          83.91          64.41          -10.8         0.9056          10.84          86.72         -84.49           89.7          108.0
     0.856              -54.21          5.503          83.86          64.38         -10.79          0.897          10.85          86.65         -84.44           89.7          107.9
    0.8903              -54.18          5.504           83.8          64.34         -10.79         0.8874          10.87          86.56         -84.39          89.69          107.8
    0.9245              -54.14          5.505          83.74          64.29         -10.78         0.8766          10.88          86.46         -84.32          89.69          107.7
    0.9588               -54.1          5.506          83.67          64.25         -10.78         0.8644           10.9          86.35         -84.25          89.68          107.6
     0.993              -54.05          5.507          83.59          64.19         -10.77         0.8506          10.91          86.23         -84.17          89.67          107.5
     1.027              -53.99          5.508           83.5          64.13         -10.76         0.8348          10.93          86.08         -84.07          89.66          107.3
     1.061              -53.93           5.51           83.4          64.06         -10.76         0.8167          10.96          85.92         -83.97          89.65          107.2
     1.096              -53.85          5.512          83.27          63.97         -10.75         0.7957          10.98          85.73         -83.84          89.64          107.0
      1.13              -53.76          5.514          83.13          63.88         -10.73         0.7714          11.02          85.51          -83.7          89.63          106.7
     1.164              -53.66          5.516          82.97          63.77         -10.72          0.743          11.05          85.25         -83.53          89.61          106.5
     1.198              -53.54          5.519          82.78          63.63          -10.7         0.7094          11.09          84.94         -83.33          89.59          106.2
     1.233               -53.4          5.523          82.55          63.47         -10.69         0.6696          11.15          84.58         -83.09          89.57          105.8
     1.267              -53.23          5.527          82.27          63.29         -10.66         0.6218          11.21          84.15         -82.81          89.54          105.3
